#!OML:ASF F:\VICON\USERDATA\INSTALL\rory3\rory3.ASF
:FULLY-SPECIFIED
:DEGREES
430
root 0.391658 16.8766 24.2805 7.37876 2.62688 1.32897
lowerback -4.16548 0.929216 -2.61277
upperback -2.91192 1.32213 -0.732939
thorax -0.697718 0.693362 0.757481
lowerneck -16.7709 0.580418 -1.14313
upperneck 42.1456 1.99519 -1.00172
head 18.8523 0.496929 0.142721
rclavicle 1.59067e-014 -2.26615e-014
rhumerus -39.295 -15.0944 -73.9497
rradius 24.9244
rwrist -6.49327
rhand -2.76543 12.1191
rfingers 7.12502
rthumb 22.9391 -16.5363
lclavicle 1.59067e-014 -2.26615e-014
lhumerus -34.4552 33.1279 68.8964
lradius 31.1156
lwrist 3.0739
lhand -0.554356 21.8415
lfingers 7.12502
lthumb 25.0593 50.2175
rfemur -18.9611 -0.494407 20.2403
rtibia 62.2811
rfoot -0.847034 -15.1278
rtoes 0.764851
lfemur -24.2681 -5.54217 -25.7543
ltibia 32.2808
lfoot -19.0785 11.4711
ltoes -17.5838
431
root 0.39222 16.872 24.3735 7.47184 2.53656 0.790323
lowerback -3.71583 0.954203 -2.28877
upperback -3.17304 1.3279 -0.564902
thorax -1.21336 0.700236 0.736471
lowerneck -16.5009 0.624103 -1.01627
upperneck 42.2397 2.0147 -1.00764
head 18.8369 0.525351 0.119105
rclavicle 9.44227e-015 -2.16675e-014
rhumerus -39.6828 -14.8573 -74.1708
rradius 25.3302
rwrist -6.68194
rhand -2.93708 12.0673
rfingers 7.12502
rthumb 22.7743 -16.6084
lclavicle 9.44227e-015 -2.16675e-014
lhumerus -33.9925 31.7575 69.8446
lradius 32.331
lwrist 3.19664
lhand -0.331933 20.7323
lfingers 7.12502
lthumb 25.2724 49.0784
rfemur -20.4816 -0.177479 21.0247
rtibia 62.6797
rfoot -2.34353 -15.4245
rtoes -1.77883
lfemur -24.2217 -5.67902 -25.0989
ltibia 32.4575
lfoot -19.4551 11.4691
ltoes -16.0726
432
root 0.414624 16.8671 24.4947 7.48832 2.68278 0.933235
lowerback -3.82055 0.886583 -2.37208
upperback -3.05755 1.24483 -0.607025
thorax -1.03458 0.656977 0.741244
lowerneck -16.5607 0.651232 -0.91587
upperneck 42.2102 2.03083 -1.03695
head 18.8369 0.543736 0.0904645
rclavicle 1.09238e-014 5.96354e-016
rhumerus -39.6196 -15.2425 -74.0903
rradius 25.4031
rwrist -6.21264
rhand -3.07859 12.6077
rfingers 7.12502
rthumb 22.6385 -16.0846
lclavicle 1.09238e-014 5.96354e-016
lhumerus -33.2475 30.3943 70.9796
lradius 33.6177
lwrist 3.17221
lhand 0.0527292 19.4907
lfingers 7.12502
lthumb 25.6409 47.7842
rfemur -21.5279 -0.514762 20.8519
rtibia 62.842
rfoot -3.10882 -15.4153
rtoes -0.731307
lfemur -23.7995 -6.1305 -25.3182
ltibia 32.6564
lfoot -20.2005 11.2584
ltoes -13.6426
433
root 0.435043 16.8616 24.6208 7.50131 2.78008 0.90815
lowerback -3.94906 0.8278 -2.32695
upperback -3.00408 1.17018 -0.575424
thorax -0.905233 0.617491 0.749256
lowerneck -16.302 0.640921 -0.905247
upperneck 42.1069 1.9866 -1.01024
head 18.6996 0.534433 0.0908274
rclavicle -8.68906e-016 -1.33186e-014
rhumerus -39.6801 -15.3672 -74.0423
rradius 25.3235
rwrist -6.10834
rhand -3.29523 13.1648
rfingers 7.12502
rthumb 22.4306 -15.5527
lclavicle -8.68906e-016 -1.33186e-014
lhumerus -32.7648 29.2473 71.8697
lradius 34.899
lwrist 2.87954
lhand 0.378438 18.6412
lfingers 7.12502
lthumb 25.9528 46.8893
rfemur -22.5397 -0.751533 20.8714
rtibia 62.831
rfoot -3.95878 -15.4978
rtoes -0.513827
lfemur -23.4554 -6.23699 -25.4473
ltibia 32.9553
lfoot -20.444 11.4854
ltoes -13.667
434
root 0.450184 16.8597 24.7352 7.59019 2.85834 0.688789
lowerback -3.88442 0.787802 -2.13584
upperback -3.12824 1.10802 -0.506935
thorax -1.06445 0.586462 0.70829
lowerneck -15.7887 0.599115 -0.899223
upperneck 41.9191 1.89116 -0.993916
head 18.4412 0.504878 0.0754776
rclavicle 1.19193e-014 4.37326e-015
rhumerus -40.0446 -15.2141 -74.156
rradius 25.5959
rwrist -6.37393
rhand -3.61475 12.9815
rfingers 7.12502
rthumb 22.1239 -15.7727
lclavicle 1.19193e-014 4.37326e-015
lhumerus -32.4213 28.0854 72.594
lradius 36.1544
lwrist 2.42608
lhand 0.591562 17.9075
lfingers 7.12502
lthumb 26.1569 46.1256
rfemur -23.7356 -0.701956 21.175
rtibia 62.6686
rfoot -5.15729 -15.828
rtoes 0.234016
lfemur -23.2802 -6.30805 -25.3305
ltibia 33.1789
lfoot -20.5647 11.9269
ltoes -14.7367
435
root 0.465314 16.8576 24.8537 7.66816 2.80235 0.552946
lowerback -3.91671 0.750369 -2.07684
upperback -3.11254 1.05792 -0.430549
thorax -1.02914 0.560717 0.752875
lowerneck -15.5508 0.573223 -0.994945
upperneck 41.7771 1.82465 -0.88827
head 18.2863 0.479717 0.128047
rclavicle -8.27053e-015 1.80894e-014
rhumerus -40.0721 -15.0357 -74.3841
rradius 25.8047
rwrist -6.87288
rhand -3.97952 13.1218
rfingers 7.12502
rthumb 21.7736 -15.6735
lclavicle -8.27053e-015 1.80894e-014
lhumerus -31.9461 26.9882 73.3823
lradius 37.5812
lwrist 2.14692
lhand 0.848017 17.2259
lfingers 7.12502
lthumb 26.4024 45.4074
rfemur -24.9292 -0.516361 21.3484
rtibia 62.3833
rfoot -6.57087 -16.2307
rtoes 1.28864
lfemur -23.0758 -6.43915 -25.2788
ltibia 33.4622
lfoot -20.74 12.4915
ltoes -16.3248
436
root 0.475728 16.856 24.9684 7.74048 2.62003 0.486495
lowerback -3.86519 0.784699 -2.09819
upperback -3.11426 1.10292 -0.409143
thorax -1.06184 0.584088 0.787157
lowerneck -14.9052 0.388069 -1.40633
upperneck 41.4301 1.48596 -0.509007
head 17.8943 0.3376 0.310326
rclavicle -6.46827e-015 1.39149e-014
rhumerus -40.0903 -15.2665 -74.3313
rradius 25.5653
rwrist -6.97923
rhand -4.29032 13.9541
rfingers 7.12502
rthumb 21.4751 -14.8755
lclavicle -6.46827e-015 1.39149e-014
lhumerus -31.403 26.3163 73.8719
lradius 38.4767
lwrist 1.36041
lhand 0.916626 16.1368
lfingers 7.12502
lthumb 26.468 44.3084
rfemur -26.1555 -0.133062 21.4725
rtibia 61.9839
rfoot -7.92036 -16.8096
rtoes 1.87618
lfemur -22.9229 -6.59049 -25.2732
ltibia 33.8169
lfoot -20.9859 13.0728
ltoes -17.8292
437
root 0.48217 16.8437 25.0694 7.73009 2.42674 0.268583
lowerback -3.64762 0.856575 -2.00655
upperback -3.08688 1.19169 -0.307782
thorax -1.15787 0.628623 0.838625
lowerneck -14.8485 0.385772 -1.29609
upperneck 41.3958 1.47615 -0.593879
head 17.8611 0.339962 0.248704
rclavicle 1.64028e-014 5.56597e-015
rhumerus -40.1585 -15.4629 -74.2339
rradius 25.544
rwrist -7.0754
rhand -4.55465 14.5168
rfingers 7.12502
rthumb 21.2213 -14.3416
lclavicle 1.64028e-014 5.56597e-015
lhumerus -30.8757 25.5838 74.4317
lradius 39.2405
lwrist 0.770072
lhand 0.606139 14.7333
lfingers 7.12502
lthumb 26.1708 42.9494
rfemur -27.2862 0.30773 21.8184
rtibia 61.457
rfoot -9.28086 -17.4444
rtoes 1.59554
lfemur -22.721 -6.74521 -25.0869
ltibia 34.1211
lfoot -21.3784 13.4871
ltoes -17.6672
438
root 0.493174 16.8278 25.1766 7.6418 2.35038 -0.0977577
lowerback -3.38499 0.88812 -1.67602
upperback -3.02095 1.22171 -0.180406
thorax -1.23289 0.639397 0.780901
lowerneck -15.9175 0.714779 -0.450256
upperneck 42.0675 1.94495 -1.08676
head 18.5745 0.582591 -0.0391146
rclavicle 4.65808e-014 -7.95139e-016
rhumerus -40.179 -15.4683 -74.3119
rradius 25.8322
rwrist -7.41813
rhand -4.8947 14.4149
rfingers 7.12502
rthumb 20.8946 -14.4798
lclavicle 4.65808e-014 -7.95139e-016
lhumerus -30.456 24.4045 75.1169
lradius 40.6528
lwrist 0.703785
lhand 0.268308 14.8419
lfingers 7.12502
lthumb 25.8473 43.1055
rfemur -28.1103 0.697334 22.3125
rtibia 60.7011
rfoot -10.6671 -18.0779
rtoes 0.784425
lfemur -22.3409 -6.85238 -24.7762
ltibia 34.3507
lfoot -21.7821 13.6873
ltoes -17.2243
439
root 0.505368 16.8293 25.2973 7.6638 2.29314 0.0211348
lowerback -3.23077 0.836442 -1.88738
upperback -3.08761 1.15326 -0.174524
thorax -1.39059 0.610658 0.900412
lowerneck -15.4854 0.628583 -0.639972
upperneck 42.0734 1.7865 -0.902882
head 18.4518 0.516211 0.0485718
rclavicle -9.10381e-015 -1.78906e-015
rhumerus -40.3693 -15.455 -74.3295
rradius 25.953
rwrist -7.84303
rhand -5.02437 14.4915
rfingers 7.12502
rthumb 20.77 -14.417
lclavicle -9.10381e-015 -1.78906e-015
lhumerus -30.5956 23.0195 75.6286
lradius 42.7632
lwrist 0.809229
lhand -0.0235397 15.706
lfingers 7.12502
lthumb 25.5678 44.01
rfemur -28.9173 0.893204 22.2159
rtibia 59.7508
rfoot -11.6046 -18.6134
rtoes -1.06647
lfemur -21.9293 -7.02129 -25.003
ltibia 34.4731
lfoot -22.2456 13.7771
ltoes -16.3665
